<!-- Generated by IcoMoon.io -->
<svg version="1.1" xmlns="http://www.w3.org/2000/svg" width="973" height="1024" viewBox="0 0 973 1024">
<g id="icomoon-ignore">
</g>
<path fill="#000" d="M958.643 0l-61.44 20.48c-105.298 36.584-217.738 47.812-328.192 32.768-116.063-18.012-234.858-2.006-342.016 46.080-56.807 24.189-106.662 62.203-145.025 110.582s-64.016 105.585-74.623 166.41c-10.789 58.493-9.686 118.561 3.245 176.62 12.931 58.056 37.424 112.916 72.019 161.3-3.072 10.752-6.144 21.504-8.704 32.256-20.795 88.422-31.106 178.99-30.72 269.824h102.4c4.813-74.353 14.908-148.265 30.208-221.184 71.037 38.359 150.7 57.923 231.424 56.832 75.289-0.051 149.801-15.196 219.136-44.544 389.632-166.4 338.432-719.872 338.432-742.912l-6.144-64.512zM586.419 713.216c-133.632 56.832-293.376 47.104-382.976-23.040 15.143-50.637 35.924-99.41 61.952-145.408 20.234-33.105 44.105-63.845 71.168-91.648 27.654-28.099 58.799-52.533 92.672-72.704 69.994-41.853 147.62-69.353 228.352-80.896v-51.2c-92.887-3.215-185.206 15.739-269.312 55.296-85.994 41.961-158.923 106.57-210.944 186.88-19.294 30.674-36.403 62.669-51.2 95.744-23.73-60.703-30.457-126.732-19.456-190.976 7.208-44.978 25.748-87.379 53.875-123.209s64.913-63.909 106.893-81.591c61.216-28.613 128.012-43.301 195.584-43.008 31.744 0 62.976 3.072 95.744 5.632 102.62 13.24 206.812 7.162 307.2-17.92-3.584 141.312-29.184 471.552-279.552 578.048z"></path>
</svg>
