<!-- Generated by IcoMoon.io -->
<svg version="1.1" xmlns="http://www.w3.org/2000/svg" width="1078" height="1024" viewBox="0 0 1078 1024">
<g id="icomoon-ignore">
</g>
<path fill="#000" d="M107.789 1024h518.467c31.103 0.016 61.839-6.705 90.090-19.704 28.257-12.994 53.361-31.96 73.588-55.587l274.971-320.781c5.756-6.705 9.777-14.724 11.706-23.347 1.929-8.629 1.708-17.597-0.647-26.112-2.35-8.521-6.764-16.33-12.849-22.744s-13.646-11.232-22.032-14.029l-106.065-35.354c-25.632-8.333-52.93-10.218-79.468-5.49s-51.496 15.925-72.677 32.599l-171.655 137.269-33.253-66.56c-17.812-35.878-45.32-66.052-79.401-87.103s-73.376-32.137-113.434-32.004h-277.342c-59.446 0-107.789 48.344-107.789 107.789v323.368c0 59.446 48.344 107.789 107.789 107.789zM107.789 592.842h277.342c41.122 0 78.040 22.797 96.418 59.554l24.091 48.236h-236.167v107.789h324.123c8.294-0.108 16.443-2.14 23.821-5.928l0.162-0.054 0.216-0.108h0.162l0.108-0.054h0.216l0.054-0.054c0.485 0.162 0.162-0.054 0.162-0.054 0.539 0 0.108-0.054 0.108-0.054h0.054l0.108-0.054 0.162-0.054 0.216-0.108 0.162-0.054 0.108-0.054c0.162 0 0.108-0.054 0.108-0.054l0.162-0.108 0.216-0.108 0.162-0.054 0.108-0.054h0.054l0.108-0.054 0.162-0.054 0.108-0.054c0.485-0.054 0.162-0.054 0.162-0.054l0.108-0.054c2.075-1.25 4.058-2.657 5.928-4.204l223.448-178.769c14.12-11.21 33.576-14.713 50.661-9l30.019 10.024-222.747 259.934c-10.245 11.636-22.851 20.96-36.972 27.352-14.126 6.392-29.443 9.706-44.948 9.728h-518.467v-323.368zM753.61 0.001c-8.785 0.108-54.218 2.102-106.873 37.996-51.254-34.924-95.609-37.726-106.065-37.942l-1.617-0.054h-0.216c-43.17 0-83.806 16.869-114.203 47.32-30.504 30.558-47.373 71.141-47.373 114.365s16.869 83.806 46.403 113.395l183.997 193.267c5.061 5.255 11.135 9.434 17.85 12.287s13.937 4.321 21.235 4.316c7.297-0.005 14.519-1.483 21.229-4.345 6.715-2.862 12.778-7.050 17.834-12.312l183.027-192.296c30.558-30.504 47.373-71.087 47.373-114.311s-16.869-83.806-47.32-114.311c-14.967-15.061-32.768-27.003-52.38-35.135s-40.647-12.292-61.877-12.238h-1.024zM808.421 161.685c0 14.39-5.605 27.917-16.761 39.074l-144.923 152.253-145.893-153.223c-10.186-10.186-15.791-23.714-15.791-38.104s5.605-27.917 15.845-38.157c9.746-9.913 23.017-15.571 36.918-15.737 1.347 0.054 27.055 1.725 57.506 26.139 4.365 3.503 8.785 7.491 13.312 11.965l38.104 38.104 38.104-38.104c4.527-4.473 8.947-8.461 13.312-11.965 28.51-22.905 52.601-25.762 56.697-26.085 7.022-0.002 13.98 1.389 20.464 4.090s12.369 6.66 17.316 11.648c10.186 10.186 15.791 23.714 15.791 38.104z"></path>
</svg>
